<svg width="426" height="91" viewBox="0 0 426 91" fill="none" xmlns="http://www.w3.org/2000/svg">
<path d="M140.511 59.5331C140.511 75.3671 151.944 87.8074 170.028 87.8074H186.703V72.8214H171.521C161.817 72.8214 156.457 67.0685 156.457 59.5331C156.457 51.9978 161.817 46.2445 171.521 46.2445H186.703V31.2588H170.028C151.962 31.2588 140.511 43.6988 140.511 59.5331Z" fill="#D00F31"/>
<path d="M323.459 30.5479C317.352 30.5479 311.652 31.7868 304.273 36.7594C296.894 31.7868 291.194 30.5479 285.087 30.5479C271.5 30.5479 262 39.8991 262 53.3743V87.8091H277.945V54.172C277.945 48.4187 281.457 45.5506 287.207 45.5506C293.298 45.5506 296.3 48.5884 296.3 53.4592V87.8262H312.229V53.4422C312.229 48.5714 315.231 45.5336 321.321 45.5336C327.072 45.5336 330.583 48.4017 330.583 54.155V87.792H346.529V53.3743C346.529 39.8991 337.03 30.5479 323.442 30.5479H323.459Z" fill="#D00F31"/>
<path d="M384.873 30.5479C365.925 30.5479 355.221 45.3299 355.221 59.5348C355.221 73.7399 365.925 88.5052 384.873 88.5052C403.821 88.5052 414.492 73.7058 414.492 59.5348C414.492 45.3638 403.788 30.5479 384.873 30.5479ZM384.856 73.5192C375.967 73.5192 371.167 66.5953 371.167 59.5348C371.167 52.4749 375.967 45.5506 384.856 45.5506C393.745 45.5506 398.546 52.4749 398.546 59.5348C398.546 66.5953 393.728 73.5192 384.856 73.5192Z" fill="#D00F31"/>
<path d="M48.8783 5.6875V34.1145C45.0275 31.8743 40.4134 30.5505 35.053 30.5505C15.935 30.5505 5.75684 45.4514 5.75684 59.5544C5.75684 73.6577 15.935 88.5248 35.053 88.5248C49.4211 88.5248 54.7985 81.5832 64.824 76.9843V5.6875H48.8783ZM21.7026 59.5373C21.7026 52.4775 26.5033 45.5532 35.3922 45.5532C44.2811 45.5532 48.9292 52.189 49.0818 59.1813V59.911C48.9292 66.9032 44.2811 73.5388 35.3922 73.5388C26.5033 73.5388 21.7026 66.6148 21.7026 59.5544V59.5373Z" fill="#D00F31"/>
<path d="M112.148 5.6875V9.55699H106.517V23.6093H102.395V9.55699H96.7969V5.6875H112.148Z" fill="#D00F31"/>
<path d="M130.549 5.6875V9.55699H124.951V23.6093H120.812V9.55699H115.214V5.6875H130.566H130.549Z" fill="#D00F31"/>
<path d="M81.1869 5.6875L89.3299 17.1771V5.6875H93.2991V23.6093H88.9562L80.8651 12.1536V23.6093H76.8953V5.6875H81.2042H81.1869Z" fill="#D00F31"/>
<path d="M103.489 30.5479C84.5415 30.5479 73.8374 45.3299 73.8374 59.5348C73.8374 73.7399 84.5582 88.5052 103.489 88.5052C122.421 88.5052 133.125 73.7058 133.125 59.5348C133.125 45.3638 122.404 30.5479 103.489 30.5479ZM103.473 73.5192C94.5836 73.5192 89.783 66.5953 89.783 59.5348C89.783 52.4749 94.5836 45.5506 103.473 45.5506C112.362 45.5506 117.162 52.4749 117.162 59.5348C117.162 66.5953 112.344 73.5192 103.473 73.5192Z" fill="#D00F31"/>
<path d="M223.735 30.5479C204.787 30.5479 194.065 45.3299 194.065 59.5348C194.065 73.7399 204.787 88.5052 223.735 88.5052C242.684 88.5052 253.353 73.7058 253.353 59.5348C253.353 45.3638 242.65 30.5479 223.735 30.5479ZM223.718 73.5192C214.846 73.5192 210.028 66.5953 210.028 59.5348C210.028 52.4749 214.846 45.5506 223.718 45.5506C232.59 45.5506 237.407 52.4749 237.407 59.5348C237.407 66.5953 232.59 73.5192 223.718 73.5192Z" fill="#D00F31"/>
</svg>
