<?xml version="1.0" encoding="utf-8"?>
<!-- Generator: Adobe Illustrator 22.1.0, SVG Export Plug-In . SVG Version: 6.00 Build 0)  -->
<svg version="1.1" id="レイヤー_1" xmlns="http://www.w3.org/2000/svg" xmlns:xlink="http://www.w3.org/1999/xlink" x="0px"
	 y="0px" viewBox="0 0 423.8 124.4" style="enable-background:new 0 0 423.8 124.4;" xml:space="preserve">
<style type="text/css">
	.st0{fill:#00A8EA;}
</style>
<g>
	<path class="st0" d="M72.5,47.3c0,4.3-2.9,7.8-6.5,7.8c-3.6,0-6.5-3.5-6.5-7.8S66,20.1,66,20.1S72.5,43,72.5,47.3z"/>
	<circle class="st0" cx="66" cy="8.5" r="3.6"/>
	<g>
		<path class="st0" d="M35.1,113.5h3v4.8h-3c-2.9,0-5.6-2.3-6.6-5l-2.2-6.2h5.9c0.8,0,1.3-0.8,1.3-1.6s-0.5-1.6-1.3-1.6H25v14.3
			h-4.8V99.2h12c3.5,0,6.1,3,6.1,6.4c0,3.1-2.2,5.9-5.3,6.3C33.5,112.8,34,113.5,35.1,113.5z"/>
		<path class="st0" d="M51.1,99.2v19.1h-4.8V99.2H51.1z"/>
		<path class="st0" d="M77.2,106.9c0,4-3,7.5-7.2,7.5h-5.9v4h-4.7v-19H70C74.1,99.4,77.2,102.9,77.2,106.9z M72.4,106.9
			c0-1.3-1-2.7-2.4-2.7h-5.9v5.5H70C71.5,109.6,72.4,108.2,72.4,106.9z"/>
		<path class="st0" d="M98,99.2v4.7h-4.3v14.4H89V104h-4.3v-4.7H98z"/>
		<path class="st0" d="M123.5,99.2l-4.1,7.8c-1,1.9-2,3.8-3.1,5.6l-0.2,0.2l-0.7,1.3c-1.3,2.4-4.3,4.2-7.1,4.2h-2.7v-4.8h2.7
			c0.9,0,2.1-0.7,2.7-1.4l-5.6-12.9h5.2l3.3,7.6c1.4-2.5,2.7-5.1,4.1-7.6H123.5z"/>
	</g>
	<path class="st0" d="M86,53.6c21.7,2.3,37,8.1,37,14.8c0,8.8-25.7,15.9-57.4,15.9S8.2,77.2,8.2,68.4c0-3.7,4.6-7.1,12.3-9.8
		C10,61.8,3.6,66.1,3.6,70.8c0,10,28.6,18,63.8,18s63.8-8.1,63.8-18C131.3,62.7,112.2,55.8,86,53.6z"/>
	<path class="st0" d="M82.3,54.6C99.6,56.2,112,60.2,112,65c0,6.1-20.6,11.1-45.9,11.1s-45.9-5-45.9-11.1c0-2.6,3.7-5,9.8-6.9
		c-8.4,2.3-13.6,5.3-13.6,8.6c0,7,22.9,12.6,51.1,12.6s51.1-5.7,51.1-12.6C118.5,61,103.3,56.2,82.3,54.6z"/>
	<g>
		<path class="st0" d="M256.5,86.9c0,4.3-2.9,7.8-6.5,7.8s-6.5-3.5-6.5-7.8s6.5-27.2,6.5-27.2S256.5,82.6,256.5,86.9z"/>
		<circle class="st0" cx="250" cy="48.1" r="3.6"/>
	</g>
	<g>
		<path class="st0" d="M219.4,84.6h6.6v10.5h-6.6c-6.3,0-12.3-5-14.3-10.8l-4.8-13.6h13c1.8,0,2.9-1.8,2.9-3.4s-1.1-3.4-2.9-3.4
			h-15.8v31.2H187V53.4h26.3c7.6,0,13.3,6.5,13.3,13.9c0,6.7-4.7,12.8-11.5,13.7C215.9,83,217,84.6,219.4,84.6z"/>
		<path class="st0" d="M315.7,70.1c0,8.7-6.7,16.3-15.6,16.3h-12.8v8.8H277V53.7h23.1C309.1,53.7,315.7,61.4,315.7,70.1z
			 M305.4,70.1c0-2.9-2.1-6-5.3-6h-12.8V76h12.8C303.3,76,305.4,73,305.4,70.1z"/>
		<path class="st0" d="M361.3,53.4v10.3h-9.4v31.4h-10.3V63.7h-9.4V53.4H361.3z"/>
		<path class="st0" d="M416.8,53.3l-9,17c-2.2,4.1-4.3,8.3-6.7,12.3l-0.3,0.5l-1.6,2.8c-2.9,5.2-9.5,9.1-15.4,9.1h-5.9V84.6h5.9
			c2,0,4.6-1.5,5.9-3.1l-12.2-28.2h11.4l7.2,16.7c3.1-5.5,6-11.1,8.9-16.7H416.8z"/>
	</g>
</g>
</svg>
