<svg width="51" height="461" viewBox="0 0 51 461" fill="none" xmlns="http://www.w3.org/2000/svg">
<path d="M25.3739 461L47.5412 424.165L3.59234 424.165L25.3739 461Z" fill="#E71D29"/>
<rect width="424.165" height="43.9527" transform="matrix(3.88182e-08 1 1 -4.92214e-08 3.58789 0)" fill="#E71D29"/>
<path d="M25.827 209.474C25.0845 209.474 24.4233 209.346 23.8433 209.091C23.2666 208.833 22.8109 208.478 22.4761 208.027C22.1447 207.573 21.974 207.049 21.964 206.456H24.1316C24.1449 206.705 24.2261 206.923 24.3753 207.112C24.5277 207.298 24.7299 207.442 24.9818 207.545C25.2337 207.648 25.5171 207.699 25.8319 207.699C26.1601 207.699 26.4501 207.641 26.702 207.525C26.9539 207.409 27.1511 207.248 27.2936 207.043C27.4361 206.837 27.5074 206.6 27.5074 206.332C27.5074 206.06 27.4311 205.82 27.2787 205.611C27.1295 205.399 26.9141 205.233 26.6324 205.114C26.3539 204.994 26.0225 204.935 25.638 204.935H24.6885V203.354H25.638C25.9628 203.354 26.2495 203.297 26.4981 203.185C26.75 203.072 26.9456 202.916 27.0848 202.717C27.224 202.515 27.2936 202.28 27.2936 202.012C27.2936 201.756 27.2323 201.533 27.1096 201.34C26.9903 201.145 26.8213 200.992 26.6025 200.883C26.3871 200.774 26.1352 200.719 25.8468 200.719C25.5552 200.719 25.2884 200.772 25.0464 200.878C24.8045 200.981 24.6106 201.128 24.4647 201.32C24.3189 201.513 24.241 201.738 24.2311 201.997H22.1679C22.1778 201.41 22.3452 200.893 22.67 200.445C22.9948 199.998 23.4323 199.648 23.9825 199.396C24.536 199.141 25.1608 199.014 25.8568 199.014C26.5594 199.014 27.1743 199.141 27.7012 199.396C28.2282 199.652 28.6376 199.996 28.9292 200.431C29.2242 200.861 29.37 201.345 29.3667 201.882C29.37 202.452 29.1927 202.928 28.8348 203.309C28.4801 203.69 28.0178 203.932 27.4477 204.035V204.114C28.1967 204.211 28.7668 204.471 29.1579 204.895C29.5523 205.316 29.7479 205.843 29.7446 206.476C29.7479 207.056 29.5805 207.571 29.2424 208.022C28.9077 208.473 28.4453 208.828 27.8554 209.086C27.2654 209.345 26.5893 209.474 25.827 209.474ZM20.9944 215.289H30.7664V227.413H28.9604V216.983H22.7304V227.427H20.9944V215.289ZM22.1844 219.993H29.7164V221.659H22.1844V219.993ZM22.1704 224.823H29.7164V226.517H22.1704V224.823ZM19.8184 233.745C20.3644 233.731 20.9244 233.703 21.1904 233.675C22.3524 233.563 24.6624 233.367 27.2244 233.143C28.6804 233.031 30.2064 232.933 31.2004 232.891L31.2144 234.697C30.4584 234.697 29.2544 234.711 28.4984 234.879C26.8184 235.327 25.5444 237.147 25.5444 238.813C25.5444 241.109 27.7004 241.949 30.0664 242.061L29.4084 243.979C26.4824 243.797 23.7104 242.215 23.7104 239.177C23.7104 237.175 24.8444 235.579 25.7824 234.865C24.4804 235.005 21.6104 235.313 20.0004 235.663L19.8184 233.745ZM29.2124 236.069C29.5484 236.559 30.0524 237.413 30.3184 237.973L29.2684 238.435C28.9044 237.679 28.6104 237.119 28.1764 236.503L29.2124 236.069ZM30.7664 235.425C31.1304 235.915 31.6624 236.741 31.9564 237.287L30.9064 237.791C30.5284 237.035 30.2064 236.503 29.7584 235.887L30.7664 235.425ZM19.4404 257.605H32.2644V258.879H19.4404V257.605ZM23.0664 249.597H32.2504V250.731H23.0664V249.597ZM27.6024 256.863H29.2264V259.999C29.2264 260.755 29.0864 261.147 28.5124 261.371C27.9664 261.581 27.2104 261.595 26.1604 261.595C26.0904 261.161 25.8524 260.559 25.6424 260.153C26.3284 260.195 27.1124 260.181 27.3224 260.167C27.5464 260.167 27.6024 260.125 27.6024 259.957V256.863ZM21.8204 259.495L22.9544 258.557C23.6264 258.991 24.4804 259.649 24.9004 260.125L23.6684 261.161C23.3184 260.685 22.4784 259.971 21.8204 259.495ZM19.8324 249.513L20.9244 248.603C21.6244 249.079 22.4924 249.793 22.8844 250.325L21.7364 251.347C21.3724 250.815 20.5324 250.045 19.8324 249.513ZM24.6764 248.687L26.0484 248.435C26.3424 248.841 26.6504 249.415 26.7764 249.807L25.3344 250.101C25.2224 249.723 24.9424 249.121 24.6764 248.687ZM25.7264 253.041V253.475H29.4784V253.041H25.7264ZM25.7264 254.189V254.623H29.4784V254.189H25.7264ZM25.7264 251.907V252.327H29.4784V251.907H25.7264ZM24.1724 251.165H31.1024V255.365H24.1724V251.165ZM22.6464 251.921V255.211H21.1204V253.195H19.4964V251.921H22.6464ZM26.7904 250.059L28.4564 250.171C28.2464 250.703 28.0504 251.151 27.8964 251.501L26.5664 251.333C26.6644 250.927 26.7624 250.409 26.7904 250.059ZM29.2124 248.407L30.7944 248.673C30.4584 249.219 30.1224 249.667 29.8564 250.017L28.5264 249.751C28.7644 249.345 29.0584 248.799 29.2124 248.407ZM22.6464 254.651C23.0944 255.421 23.9484 255.743 25.1384 255.785C26.8464 255.855 30.5144 255.813 32.4604 255.673C32.3204 255.981 32.1244 256.583 32.0544 256.961C30.2624 257.045 26.8744 257.059 25.1524 257.003C23.7244 256.947 22.7864 256.625 22.0864 255.743C21.4284 256.205 20.7284 256.639 19.9584 257.129L19.3704 255.799C20.0284 255.491 20.8264 255.071 21.5264 254.651H22.6464ZM22.0584 266.233H26.0204V267.941H22.0584V266.233ZM25.1944 266.233H26.9304C26.9304 268.893 27.3084 274.045 32.5024 277.083C32.1104 277.391 31.4384 278.133 31.1444 278.553C25.8104 275.347 25.1944 269.089 25.1944 266.233ZM24.5924 269.299L26.5244 269.649C25.5444 273.807 23.6824 276.817 20.7564 278.581C20.4484 278.217 19.6644 277.517 19.2304 277.209C22.1564 275.725 23.8364 273.009 24.5924 269.299ZM28.8204 283.849H30.5844V293.481C30.5844 294.489 30.3464 294.993 29.6744 295.259C28.9744 295.553 27.9524 295.581 26.5104 295.581C26.4124 295.077 26.0764 294.251 25.8104 293.789C26.8184 293.859 28.0364 293.845 28.3724 293.845C28.7084 293.831 28.8204 293.733 28.8204 293.439V283.849ZM20.8124 286.649H22.4504V293.173H20.8124V286.649ZM21.5124 286.649H26.7904V292.095H21.5124V290.499H25.1244V288.245H21.5124V286.649ZM19.5244 283.387H32.2084V285.081H19.5244V283.387ZM21.3864 299.379L23.1364 299.757C22.6324 301.045 22.0024 302.417 21.4704 303.313L20.0144 302.935C20.5184 301.983 21.0924 300.499 21.3864 299.379ZM19.2724 302.249C20.7844 302.207 23.0524 302.109 25.2224 302.011L25.2084 303.467C23.1504 303.621 20.9944 303.747 19.3984 303.845L19.2724 302.249ZM20.0984 304.503H24.5504V305.889H21.6524V312.581H20.0984V304.503ZM23.7524 304.503H25.4184V310.901C25.4184 311.615 25.2784 312.035 24.8024 312.287C24.3124 312.539 23.6824 312.567 22.8284 312.567C22.7444 312.119 22.5064 311.475 22.2964 311.069C22.7864 311.097 23.3464 311.097 23.5284 311.083C23.6964 311.083 23.7524 311.041 23.7524 310.859V304.503ZM20.8124 306.617H24.6904V307.863H20.8124V306.617ZM20.8124 308.675H24.6904V309.921H20.8124V308.675ZM26.5104 299.505H28.1904V303.705C28.1904 304.195 28.2744 304.265 28.8064 304.265C29.0304 304.265 30.0384 304.265 30.3324 304.265C30.7944 304.265 30.8784 304.055 30.9344 302.823C31.2844 303.089 31.9704 303.341 32.4324 303.439C32.2504 305.259 31.8024 305.763 30.5004 305.763C30.1504 305.763 28.8904 305.763 28.5684 305.763C26.9164 305.763 26.5104 305.287 26.5104 303.733V299.505ZM30.7104 300.331L31.7744 301.549C30.5284 302.151 28.9044 302.683 27.5184 303.061C27.4484 302.725 27.2244 302.221 27.0424 301.899C28.3444 301.493 29.7864 300.863 30.7104 300.331ZM26.5104 306.043H28.1764V310.453C28.1764 310.971 28.2744 311.027 28.8204 311.027C29.0584 311.027 30.1084 311.027 30.4164 311.027C30.9064 311.027 30.9904 310.775 31.0604 309.347C31.4104 309.599 32.0824 309.865 32.5444 309.963C32.3624 311.937 31.9144 312.497 30.5704 312.497C30.2204 312.497 28.9184 312.497 28.5824 312.497C26.9304 312.497 26.5104 312.021 26.5104 310.467V306.043ZM30.8224 306.631L31.9144 307.863C30.6404 308.549 28.9464 309.137 27.5044 309.543C27.4204 309.221 27.1824 308.689 27.0144 308.367C28.3724 307.933 29.8704 307.247 30.8224 306.631ZM23.2904 300.919L24.7184 300.387C25.4044 301.395 26.1324 302.725 26.3984 303.649L24.8724 304.265C24.6344 303.369 23.9624 301.969 23.2904 300.919Z" fill="white"/>
<path d="M22.8424 122.46V123.048H28.7924V122.46H22.8424ZM22.8424 120.878V121.452H28.7924V120.878H22.8424ZM21.2324 119.8H30.4724V124.126H21.2324V119.8ZM19.5804 124.63H32.0964V125.974H19.5804V124.63ZM25.9924 126.492H30.5704V127.78H25.9924V126.492ZM21.7224 126.534H24.9144V127.696H21.7224V126.534ZM21.7224 128.284H24.9144V129.446H21.7224V128.284ZM27.7144 127.654C28.4984 129.362 30.1504 130.65 32.4044 131.182C32.0544 131.476 31.6204 132.092 31.4104 132.484C28.9884 131.784 27.3224 130.216 26.3704 128.032L27.7144 127.654ZM30.0804 126.492H30.3744L30.6544 126.436L31.6904 126.828C30.8644 129.754 28.8904 131.546 26.3984 132.484C26.2164 132.092 25.7964 131.49 25.4884 131.182C27.6584 130.496 29.4644 128.886 30.0804 126.73V126.492ZM19.4544 130.328C20.8544 130.244 22.9124 130.09 24.8724 129.922V131.28C22.9964 131.462 21.0364 131.644 19.5664 131.77L19.4544 130.328ZM24.0464 125.064H25.6564V132.498H24.0464V125.064ZM20.6724 125.106H22.2124V130.818H20.6724V125.106ZM25.0124 138.926H32.2224V140.466H25.0124V138.926ZM24.3684 149.692H32.4184V151.246H24.3684V149.692ZM25.8664 146.808L27.2944 146.458C27.6304 147.298 27.9244 148.404 27.9944 149.146L26.4824 149.538C26.4404 148.81 26.1744 147.662 25.8664 146.808ZM29.8004 146.374L31.4524 146.738C31.0744 147.76 30.6964 148.88 30.3604 149.58L28.9464 149.23C29.2684 148.474 29.6324 147.256 29.8004 146.374ZM27.0844 143.014V144.722H30.1364V143.014H27.0844ZM25.5304 141.544H31.7604V146.178H25.5304V141.544ZM21.7784 140.844H23.3884V143.49C23.3884 145.842 22.9404 149.356 20.4344 151.498C20.2244 151.162 19.5944 150.532 19.2864 150.322C21.5544 148.376 21.7784 145.534 21.7784 143.462V140.844ZM20.7144 140.032H24.9564V141.558H20.7144V140.032ZM19.3844 143.728H25.1244V145.282H19.3844V143.728ZM23.0804 145.674C23.5284 146.08 24.9984 147.83 25.3344 148.25L24.2704 149.636C23.7664 148.754 22.6604 147.27 22.1004 146.57L23.0804 145.674ZM20.6164 138.366L22.1984 138.66C21.8624 140.452 21.2604 142.258 20.5324 143.392C20.2104 143.154 19.4964 142.776 19.1044 142.622C19.8464 141.6 20.3504 139.962 20.6164 138.366ZM27.7848 169.238H25.5028V163.456C25.5028 163.297 25.5028 163.101 25.5028 162.868C25.5122 162.634 25.5168 162.392 25.5168 162.14C25.5262 161.888 25.5355 161.664 25.5448 161.468C25.4702 161.524 25.3722 161.626 25.2508 161.776C25.1388 161.925 25.0222 162.051 24.9008 162.154L23.8508 163.078L22.7028 161.804L25.8248 159.242H27.7848V169.238Z" fill="white"/>
<path d="M25.2903 181.048C25.9063 180.446 26.2843 179.942 26.2843 178.976C26.2843 178.066 25.6123 177.268 24.6183 176.736L25.4443 175.21C27.1803 176.148 28.0343 177.506 28.0343 179.004C28.0343 180.348 27.5303 181.356 26.4803 182.322C25.8503 182.924 25.4863 183.442 25.4863 184.394C25.4863 185.304 26.1583 186.102 27.1523 186.634L26.3263 188.16C24.5903 187.222 23.7363 185.864 23.7363 184.366C23.7363 183.022 24.2403 182.014 25.2903 181.048Z" fill="white"/>
</svg>
